<svg xmlns="http://www.w3.org/2000/svg" version="1.1" xmlns:xlink="http://www.w3.org/1999/xlink" xmlns:svgjs="http://svgjs.dev/svgjs" viewBox="0 0 11.480806643859621 6.91773933027474"><g transform="matrix(1,0,0,1,0.7378831803282484,5.159856149946492)"><g><path d=" M 0.6015 1.0199999999999998 Q 0.4935 1.0199999999999998 0.40125 0.9839999999999999 Q 0.309 0.9479999999999998 0.2415 0.8827499999999999 Q 0.17400000000000002 0.8174999999999999 0.13575 0.7289999999999999 Q 0.0975 0.6404999999999998 0.0975 0.5354999999999999 Q 0.0975 0.41999999999999993 0.14025 0.3224999999999999 Q 0.183 0.22499999999999987 0.258 0.15224999999999989 Q 0.333 0.0794999999999999 0.4305 0.03974999999999984 Q 0.528 -2.220446049250313e-16 0.639 -2.220446049250313e-16 Q 0.7185 -2.220446049250313e-16 0.774 0.008999999999999897 Q 0.8295 0.017999999999999905 0.87375 0.034499999999999864 Q 0.918 0.05099999999999982 0.96 0.07199999999999984 L 0.969 0.32399999999999984 L 0.9450000000000001 0.32399999999999984 L 0.837 0.1439999999999999 Q 0.7785 0.10499999999999987 0.7365 0.08999999999999986 Q 0.6945 0.07499999999999984 0.639 0.07499999999999984 Q 0.528 0.07499999999999984 0.441 0.1259999999999999 Q 0.354 0.17699999999999982 0.3045 0.2669999999999999 Q 0.255 0.3569999999999999 0.255 0.4724999999999999 Q 0.255 0.6179999999999999 0.3075 0.7214999999999998 Q 0.36 0.825 0.44775000000000004 0.8797499999999999 Q 0.5355 0.9344999999999999 0.645 0.9344999999999999 Q 0.6885 0.9344999999999999 0.7312500000000001 0.9292499999999999 Q 0.774 0.9239999999999999 0.8175 0.9089999999999999 L 0.8175 0.6524999999999999 L 0.684 0.5909999999999999 L 0.684 0.567 L 1.08 0.567 L 1.08 0.5909999999999999 L 0.975 0.6569999999999998 L 0.975 0.8939999999999999 Q 0.93 0.9329999999999998 0.867 0.9607499999999999 Q 0.804 0.9884999999999999 0.735 1.0042499999999999 Q 0.666 1.0199999999999998 0.6015 1.0199999999999998 M 1.179049072265625 1.005 L 1.179049072265625 0.9809999999999999 L 1.273549072265625 0.9314999999999999 L 1.659049072265625 0.00749999999999984 L 1.741549072265625 0.00749999999999984 L 2.1225490722656253 0.9269999999999999 L 2.223049072265625 0.9809999999999999 L 2.223049072265625 1.005 L 1.8270490722656252 1.005 L 1.8270490722656252 0.9809999999999999 L 1.9590490722656253 0.9284999999999999 L 1.848049072265625 0.6584999999999999 L 1.4865490722656252 0.6584999999999999 L 1.377049072265625 0.9299999999999999 L 1.5030490722656251 0.9809999999999999 L 1.5030490722656251 1.005 L 1.179049072265625 1.005 M 1.5210490722656251 0.5759999999999998 L 1.8150490722656252 0.5759999999999998 L 1.6680490722656252 0.2144999999999999 L 1.5210490722656251 0.5759999999999998 M 2.3670212402343753 1.005 L 2.3670212402343753 0.9809999999999999 L 2.4870212402343754 0.9209999999999999 L 2.5185212402343753 0.09899999999999987 L 2.3895212402343753 0.038999999999999924 L 2.3895212402343753 0.014999999999999902 L 2.6880212402343755 0.014999999999999902 L 3.0240212402343754 0.7904999999999999 L 3.358521240234375 0.014999999999999902 L 3.6450212402343753 0.014999999999999902 L 3.6450212402343753 0.038999999999999924 L 3.517521240234375 0.09449999999999992 L 3.543021240234375 0.9209999999999999 L 3.6510212402343756 0.9809999999999999 L 3.6510212402343756 1.005 L 3.2805212402343753 1.005 L 3.2805212402343753 0.9809999999999999 L 3.3930212402343756 0.9224999999999999 L 3.378021240234375 0.18899999999999983 L 3.0240212402343754 1.0125 L 2.9520212402343753 1.0125 L 2.6010212402343753 0.19799999999999984 L 2.581521240234375 0.9224999999999999 L 2.7060212402343753 0.9809999999999999 L 2.7060212402343753 1.005 L 2.3670212402343753 1.005 M 3.8400476074218752 1.005 L 3.8400476074218752 0.9809999999999999 L 3.9615476074218754 0.9209999999999999 L 3.9615476074218754 0.09899999999999987 L 3.8400476074218752 0.038999999999999924 L 3.8400476074218752 0.014999999999999902 L 4.593047607421875 0.014999999999999902 L 4.593047607421875 0.2729999999999999 L 4.569047607421876 0.2729999999999999 L 4.471547607421876 0.09749999999999992 L 4.119047607421876 0.09749999999999992 L 4.119047607421876 0.45299999999999985 L 4.368047607421875 0.45299999999999985 L 4.4445476074218755 0.32699999999999985 L 4.4685476074218755 0.32699999999999985 L 4.4685476074218755 0.6584999999999999 L 4.4445476074218755 0.6584999999999999 L 4.368047607421875 0.5354999999999999 L 4.119047607421876 0.5354999999999999 L 4.119047607421876 0.9224999999999999 L 4.512047607421875 0.9224999999999999 L 4.611047607421876 0.7244999999999999 L 4.635047607421876 0.7244999999999999 L 4.635047607421876 1.005 L 3.8400476074218752 1.005 M 4.84354248046875 1.005 L 4.84354248046875 0.9809999999999999 L 4.9650424804687505 0.9209999999999999 L 4.9650424804687505 0.09899999999999987 L 4.84354248046875 0.038999999999999924 L 4.84354248046875 0.014999999999999902 L 5.26054248046875 0.014999999999999902 Q 5.418042480468751 0.014999999999999902 5.508792480468751 0.08024999999999982 Q 5.599542480468751 0.14549999999999985 5.599542480468751 0.25949999999999984 Q 5.599542480468751 0.3434999999999999 5.54254248046875 0.4079999999999999 Q 5.485542480468751 0.4724999999999999 5.392542480468751 0.5069999999999999 L 5.676042480468751 0.9254999999999999 L 5.77654248046875 0.9809999999999999 L 5.77654248046875 1.005 L 5.535042480468751 1.005 L 5.2470424804687505 0.5489999999999999 L 5.12254248046875 0.5489999999999999 L 5.12254248046875 0.9194999999999999 L 5.23504248046875 0.9809999999999999 L 5.23504248046875 1.005 L 4.84354248046875 1.005 M 5.21104248046875 0.09749999999999992 L 5.12254248046875 0.09749999999999992 L 5.12254248046875 0.4694999999999999 L 5.22004248046875 0.4694999999999999 Q 5.31304248046875 0.4694999999999999 5.373792480468751 0.4162499999999999 Q 5.4345424804687505 0.3629999999999999 5.4345424804687505 0.28049999999999986 Q 5.4345424804687505 0.19499999999999984 5.375292480468751 0.14624999999999988 Q 5.3160424804687505 0.09749999999999992 5.21104248046875 0.09749999999999992 M 6.183045410156251 1.0199999999999998 Q 6.088545410156251 1.0199999999999998 6.021795410156251 1.002 Q 5.955045410156251 0.9839999999999999 5.884545410156251 0.9494999999999999 L 5.869545410156251 0.702 L 5.893545410156251 0.702 L 5.973045410156251 0.8654999999999999 Q 6.025545410156251 0.9089999999999999 6.0765454101562515 0.9284999999999999 Q 6.127545410156251 0.9479999999999998 6.178545410156251 0.9479999999999998 Q 6.265545410156251 0.9479999999999998 6.315795410156251 0.9029999999999999 Q 6.366045410156251 0.8579999999999999 6.366045410156251 0.7799999999999999 Q 6.366045410156251 0.7184999999999999 6.338295410156251 0.6817499999999999 Q 6.3105454101562515 0.6449999999999999 6.255795410156251 0.6157499999999999 Q 6.201045410156251 0.5864999999999999 6.121545410156251 0.5474999999999999 Q 6.015045410156251 0.49649999999999983 5.958045410156251 0.4402499999999999 Q 5.901045410156251 0.3839999999999999 5.901045410156251 0.2819999999999999 Q 5.901045410156251 0.22799999999999987 5.927295410156251 0.17774999999999985 Q 5.953545410156251 0.12749999999999984 5.998545410156251 0.08774999999999988 Q 6.043545410156251 0.04799999999999982 6.0990454101562515 0.02399999999999991 Q 6.154545410156251 -2.220446049250313e-16 6.214545410156251 -2.220446049250313e-16 Q 6.285045410156251 -2.220446049250313e-16 6.346545410156251 0.016499999999999848 Q 6.408045410156251 0.03299999999999992 6.468045410156251 0.06449999999999989 L 6.483045410156251 0.3044999999999999 L 6.459045410156251 0.3044999999999999 L 6.381045410156251 0.1439999999999999 Q 6.333045410156251 0.10649999999999993 6.294045410156251 0.08999999999999986 Q 6.255045410156251 0.0734999999999999 6.205545410156251 0.0734999999999999 Q 6.141045410156251 0.0734999999999999 6.098295410156251 0.11699999999999988 Q 6.055545410156251 0.16049999999999986 6.055545410156251 0.22649999999999992 Q 6.055545410156251 0.29999999999999993 6.101295410156251 0.34199999999999986 Q 6.147045410156251 0.3839999999999999 6.249045410156251 0.43199999999999983 Q 6.339045410156251 0.4754999999999999 6.398295410156251 0.5152499999999999 Q 6.457545410156251 0.5549999999999999 6.486045410156251 0.6044999999999998 Q 6.514545410156251 0.6539999999999999 6.514545410156251 0.7304999999999999 Q 6.514545410156251 0.8009999999999999 6.484545410156251 0.8549999999999999 Q 6.454545410156251 0.9089999999999999 6.4050454101562515 0.9457499999999999 Q 6.355545410156251 0.9824999999999999 6.297795410156251 1.00125 Q 6.2400454101562515 1.0199999999999998 6.183045410156251 1.0199999999999998 M 6.700568847656251 1.005 L 6.700568847656251 0.9809999999999999 L 6.822068847656251 0.9209999999999999 L 6.822068847656251 0.09899999999999987 L 6.700568847656251 0.038999999999999924 L 6.700568847656251 0.014999999999999902 L 7.156568847656251 0.014999999999999902 Q 7.32456884765625 0.014999999999999902 7.443068847656251 0.0734999999999999 Q 7.56156884765625 0.1319999999999999 7.623818847656251 0.23399999999999987 Q 7.686068847656251 0.33599999999999985 7.686068847656251 0.46499999999999986 Q 7.686068847656251 0.5819999999999999 7.645568847656251 0.6809999999999998 Q 7.605068847656251 0.7799999999999999 7.532318847656251 0.8519999999999999 Q 7.459568847656251 0.9239999999999999 7.361318847656251 0.9644999999999999 Q 7.263068847656251 1.005 7.146068847656251 1.005 L 6.700568847656251 1.005 M 7.116068847656251 0.09749999999999992 L 6.9795688476562505 0.09749999999999992 L 6.9795688476562505 0.9224999999999999 L 7.13856884765625 0.9224999999999999 Q 7.25856884765625 0.9224999999999999 7.344068847656251 0.8722499999999999 Q 7.429568847656251 0.8219999999999998 7.476068847656251 0.7297499999999999 Q 7.522568847656251 0.6375 7.522568847656251 0.5114999999999998 Q 7.522568847656251 0.3869999999999999 7.475318847656251 0.2932499999999999 Q 7.428068847656251 0.1994999999999999 7.337318847656251 0.14849999999999985 Q 7.246568847656251 0.09749999999999992 7.116068847656251 0.09749999999999992 M 7.88707763671875 1.005 L 7.88707763671875 0.9809999999999999 L 8.00857763671875 0.9209999999999999 L 8.00857763671875 0.09899999999999987 L 7.88707763671875 0.038999999999999924 L 7.88707763671875 0.014999999999999902 L 8.64007763671875 0.014999999999999902 L 8.64007763671875 0.2729999999999999 L 8.616077636718751 0.2729999999999999 L 8.518577636718751 0.09749999999999992 L 8.16607763671875 0.09749999999999992 L 8.16607763671875 0.45299999999999985 L 8.41507763671875 0.45299999999999985 L 8.49157763671875 0.32699999999999985 L 8.515577636718751 0.32699999999999985 L 8.515577636718751 0.6584999999999999 L 8.49157763671875 0.6584999999999999 L 8.41507763671875 0.5354999999999999 L 8.16607763671875 0.5354999999999999 L 8.16607763671875 0.9224999999999999 L 8.55907763671875 0.9224999999999999 L 8.658077636718751 0.7244999999999999 L 8.68207763671875 0.7244999999999999 L 8.68207763671875 1.005 L 7.88707763671875 1.005 M 8.884572509765626 1.005 L 8.884572509765626 0.9809999999999999 L 9.006072509765627 0.9209999999999999 L 9.006072509765627 0.10199999999999987 L 8.886072509765626 0.038999999999999924 L 8.886072509765626 0.014999999999999902 L 9.121572509765626 0.014999999999999902 L 9.696072509765626 0.7214999999999998 L 9.696072509765626 0.09749999999999992 L 9.541572509765626 0.038999999999999924 L 9.541572509765626 0.014999999999999902 L 9.921072509765626 0.014999999999999902 L 9.921072509765626 0.038999999999999924 L 9.801072509765627 0.09749999999999992 L 9.801072509765627 1.0125 L 9.736572509765626 1.0125 L 9.111072509765625 0.24449999999999983 L 9.111072509765625 0.9224999999999999 L 9.265572509765626 0.9809999999999999 L 9.265572509765626 1.005 L 8.884572509765626 1.005" fill="#1c3423" fill-rule="nonzero"></path></g><g></g><g clip-path="url(#SvgjsClipPath1001)"><g clip-path="url(#SvgjsClipPath1000cf03078f-1ea1-44df-9869-6ae1fef5df83)"><path d=" M 5.16479678303374 -1.8179507788065852 C 5.229970502044596 -1.8778632490577354 5.187091324652993 -1.83698992275577 5.357555784467462 -2.0025877274675117 C 5.505955882295916 -2.155328355522722 5.485173949695077 -2.13336264195095 5.542159850323642 -2.1953467289012343 C 5.483102332995943 -2.2544042462289324 5.102812696083455 -1.8777974834482394 5.16479678303374 -1.8179507788065852 Z" fill="#67a97b" transform="matrix(1,0,0,1,0,0)" fill-rule="nonzero"></path></g><g clip-path="url(#SvgjsClipPath1000cf03078f-1ea1-44df-9869-6ae1fef5df83)"><path d=" M 7.546827158990559 -3.2192843859542366 C 7.645140963694955 -3.2175849521982585 7.741375515642754 -3.190695886212844 7.826330999349932 -3.1411877246773527 C 7.785320409997654 -3.2604920419414314 7.6730820143740575 -3.3405948222503463 7.546925807404803 -3.3405948222503463 C 7.42076960043555 -3.3405948222503463 7.308531204811953 -3.2604920419414314 7.2675206154596745 -3.1411877246773527 C 7.352419734098395 -3.1906593480995213 7.448581125018518 -3.217546951517851 7.546827158990559 -3.2192843859542366 Z" fill="#67a97b" transform="matrix(1,0,0,1,0,0)" fill-rule="nonzero"></path></g><g clip-path="url(#SvgjsClipPath1000cf03078f-1ea1-44df-9869-6ae1fef5df83)"><path d=" M 4.450976857560649 -1.8179507788065852 C 4.516150576571505 -1.8778632490577354 4.473271399179902 -1.83698992275577 4.643735858994372 -2.0025877274675117 C 4.792135956822825 -2.155328355522722 4.771354024221986 -2.13336264195095 4.8283399248505505 -2.1953467289012343 C 4.769282407522852 -2.2544042462289324 4.389025653415112 -1.8777974834482394 4.450976857560649 -1.8179507788065852 Z" fill="#67a97b" transform="matrix(1,0,0,1,0,0)" fill-rule="nonzero"></path></g><g clip-path="url(#SvgjsClipPath1000cf03078f-1ea1-44df-9869-6ae1fef5df83)"><path d=" M 6.7758569188651645 -2.5274301740529177 C 6.874174291045416 -2.525725132559715 6.970410124379061 -2.498824386677275 7.055360759224538 -2.4493006299712867 C 7.014436709701654 -2.5687527438516584 6.902124829831653 -2.6489951874780258 6.7758569188651645 -2.6489951874780258 C 6.649589007898677 -2.6489951874780258 6.537277128028675 -2.5687527438516584 6.496353078505792 -2.4493006299712867 C 6.58130371335127 -2.498824386677275 6.677539546684914 -2.525725132559715 6.7758569188651645 -2.5274301740529186 Z" fill="#67a97b" transform="matrix(1,0,0,1,0,0)" fill-rule="nonzero"></path></g><g clip-path="url(#SvgjsClipPath1000cf03078f-1ea1-44df-9869-6ae1fef5df83)"><path d=" M 7.546827158990559 -1.9569135116723153 C 7.422023977434611 -1.9526827424839963 7.311900809594661 -1.8740936676466862 7.2673233186311865 -1.7574464180699678 C 7.4390278159175 -1.8616220753050903 7.654429205235131 -1.8616220753050903 7.826133702521445 -1.7574464180699678 C 7.781583977297515 -1.8740292592725774 7.671557554314837 -1.9526047574846 7.546827158990561 -1.9569135116723153 Z" fill="#67a97b" transform="matrix(1,0,0,1,0,0)" fill-rule="nonzero"></path></g><g clip-path="url(#SvgjsClipPath1000cf03078f-1ea1-44df-9869-6ae1fef5df83)"><path d=" M 9.334829667171842 -2.344831959286377 C 9.334652688159569 -3.23045572597606 8.705502868468528 -3.9911430101634573 7.835636833094252 -4.15746368822392 C 8.121702549707972 -4.130002003277538 8.399431598159076 -4.0458281359063655 8.652610117061737 -3.909856168470376 L 8.74925268021658 -4.022808602780311 C 8.770443900400636 -4.045209290364409 8.779108648376267 -4.076681235408492 8.772369118087575 -4.106771721423464 C 8.765629587798884 -4.136862207438436 8.744368198236476 -4.161631432218686 8.715646453763961 -4.172852840846172 C 8.111391919912682 -4.456165688319848 7.422062295037602 -4.499303152482648 6.787201486503281 -4.293532734271925 C 6.715418323738044 -4.269626935220011 6.703383217200217 -4.233324318778042 6.703054389152735 -4.190379375776942 L 3.301985894050389 -4.190379375776942 C 3.301657066002907 -4.233324318778042 3.28962195946508 -4.269626935220011 3.217838796699844 -4.293532734271925 C 2.5829779881655233 -4.499303152482648 1.8936483632904417 -4.456165688319848 1.2893938294391638 -4.172852840846173 C 1.260672084966649 -4.161631432218686 1.239410695404241 -4.136862207438437 1.232671165115549 -4.106771721423464 C 1.225931634826857 -4.076681235408492 1.2345963828024873 -4.045209290364409 1.2557876029865422 -4.022808602780311 L 1.3524301661413891 -3.9098561684703768 C 1.6056039421386519 -4.045839557910418 1.8833353372979356 -4.1300141365197724 2.169403450109464 -4.157463688224033 C 1.404760368926967 -4.0119841352188335 0.8136156833842455 -3.4023666616739625 0.6917262829203438 -2.6336103179619887 C 0.569836882456442 -1.864853974250015 0.9434144650963544 -1.10227591723188 1.6255536140988287 -0.7274032410589797 C 2.3076927631013024 -0.35253056488607815 3.1517029104872587 -0.445977739301215 3.7353154950216614 -0.9609920042647477 C 3.2155041175627246 -0.31389128962567625 2.326747670829415 -0.22231267840204705 1.7108856207010976 -0.4743264939919567 C 2.334113419093003 -0.12287507684360754 3.5080624314071174 -0.11330618066189224 4.133361846498157 -1.1241564814251257 L 5.888711729564514 -1.1241564814251257 C 6.492209845107523 -0.15138446856026366 7.637254872048004 -0.09143911550436457 8.303197433807771 -0.4561423029662248 C 7.72820870998142 -0.22658744301930867 6.895813390586458 -0.2990611446842566 6.377021380074714 -0.8728332047349272 C 6.935479608844828 -0.45027754948999954 7.685047467297216 -0.3803799144715754 8.312004830234478 -0.6923948822524149 C 8.938962193171738 -1.0044098500332543 9.335180890820936 -1.6445257750337512 9.334829667171842 -2.344831959286376 Z M 8.807323713401836 -2.3590044481328345 C 8.765201671055028 -2.4760166394757315 8.686255176961579 -2.576205532812977 8.582339563314914 -2.644525841761121 C 8.65686308705072 -2.5802085053692103 8.702048226867898 -2.4883664743985427 8.707524400991165 -2.3900786986198477 C 8.705560071841482 -2.1762260353339844 8.53164264241531 -2.003898775932239 8.317780957713577 -2.00389877593224 C 8.103919273011847 -2.0038987759322415 7.930001843585676 -2.176226035333989 7.928037514435996 -2.3900786986198463 C 7.933516252117907 -2.487722756325904 7.97818090010361 -2.579020284727795 8.05190703992232 -2.6432762951806916 C 7.948646389995712 -2.575061674840177 7.870210589506423 -2.475286722747184 7.82830396763482 -2.3588400341090936 C 7.885980407163097 -2.993280868920122 8.745997282546515 -3.0001862579172363 8.807323713401836 -2.3590044481328345 Z M 7.936587043670519 -1.6982244867185292 C 7.937873875998303 -1.5581295741425443 7.863871916202845 -1.428122377151892 7.742756088243001 -1.3577008130914758 C 7.621640260283159 -1.287279249031061 7.472046940502711 -1.28727924903106 7.350931112542869 -1.3577008130914754 C 7.229815284583026 -1.4281223771518903 7.155813324787566 -1.558129574142542 7.15710015711535 -1.6982244867185292 C 7.162555710549183 -1.7958674210110077 7.207210782298612 -1.8871696123202493 7.280936799796925 -1.9514220832793727 C 7.17767362593265 -1.8832247305941494 7.099236055950867 -1.7834590625393796 7.057333727509427 -1.667018705012524 C 7.11504304984245 -2.301262242995063 7.9750599252258665 -2.308233397601674 8.036386356081188 -1.667018705012524 C 7.9942666248059755 -1.7840227006453415 7.9153335650444125 -1.8842091876954306 7.8114350887990165 -1.952540098640811 C 7.885887012666906 -1.888226905474082 7.93105066398595 -1.7964518977753192 7.936587043670519 -1.6982244867185297 Z M 8.036353473276439 -3.0507600116199085 C 7.994233878722375 -3.1677553842332373 7.915299981294301 -3.2679313961423944 7.811402205994266 -3.336248522443447 C 7.885902471241229 -3.2719271650796236 7.931083428731246 -3.1801055028520784 7.936587043670519 -3.0818342621069217 C 7.937873875998284 -2.941739349530952 7.863871916202822 -2.811732152540319 7.742756088242986 -2.741310588479915 C 7.621640260283153 -2.6708890244195107 7.47204694050272 -2.67088902441951 7.3509311125428844 -2.7413105884799123 C 7.22981528458305 -2.8117321525403147 7.155813324787584 -2.9417393495309474 7.157100157115349 -3.0818342621069217 C 7.162563090708771 -3.1794752696812405 7.207216834084342 -3.270774744984452 7.280936799796923 -3.335031858667765 C 7.177673625932649 -3.2668345059825414 7.099236055950866 -3.1670688379277716 7.057333727509425 -3.050628480400916 C 7.115010167037703 -3.685135080821441 7.975027042421119 -3.6919747042090583 8.036353473276439 -3.0507600116199085 Z M 7.2654161159557935 -2.3590044481328345 C 7.223283782957159 -2.476001453538255 7.144353579794112 -2.57618431482531 7.04046484867362 -2.6445258417611215 C 7.114951682159609 -2.5801838144973095 7.160119130510105 -2.4883536212928585 7.165616803545123 -2.3900786986198477 C 7.163652474395442 -2.1762260353339844 6.989735044969268 -2.003898775932239 6.7758733602675365 -2.00389877593224 C 6.562011675565807 -2.0038987759322415 6.388094246139635 -2.176226035333989 6.386129916989955 -2.3900786986198463 C 6.391585470423787 -2.487721632912326 6.436240542173215 -2.5790238242215677 6.509966559671529 -2.6432762951806916 C 6.40670500339346 -2.5750771854515424 6.328267904974192 -2.4753121171826824 6.2863634873840315 -2.3588729169138425 C 6.344072809717056 -2.993280868920122 7.204023919490975 -3.0001862579172363 7.2654161159557935 -2.3590044481328345 Z M 2.8780607752370906 -3.3199715340931073 C 3.1162862727435607 -3.230304474453866 3.3034794155963767 -3.0410815843187375 3.3905721700419362 -2.801902945285822 L 2.9816087273890512 -2.801902945285822 C 2.9541461029892355 -2.801902945285822 2.9278082761867092 -2.8128124303508626 2.90838926824442 -2.8322314382931513 C 2.8889702603021306 -2.8516504462354404 2.8780607752370906 -2.8779882730379667 2.8780607752370906 -2.905450897437783 Z M 2.2965612560706026 -3.3045823814709676 L 2.2965612560706026 -3.4737644119002584 C 2.3771822918566956 -3.493598187437822 2.4599627520944867 -3.503296778856128 2.5429849948533247 -3.5026355144691443 C 2.622928329255325 -3.5030010814685193 2.7026049474986213 -3.4933908419188633 2.780168665501814 -3.4740274743382438 L 2.780168665501814 -3.011300645922115 C 2.703913441290827 -3.2507203472934787 2.6811914232098477 -3.341838599250634 2.5383485193838338 -3.339931396575241 C 2.411749721103412 -3.338221490728337 2.3678840595693647 -3.2349694838191096 2.2965612560706026 -3.011300645922115 Z M 2.744721001983296 -2.5159211923910614 C 2.744721000301964 -2.4030889367327646 2.6532523856526256 -2.3116203248094025 2.5404201330386487 -2.311620326490734 C 2.4275878804246718 -2.3116203281720655 2.3361192685013092 -2.4030889428214044 2.3361192701826408 -2.5159211954353813 C 2.3361192718639723 -2.628753448049358 2.4275878865133116 -2.7202220599727207 2.540420139127288 -2.720222058291389 C 2.5946040946082327 -2.720222058291389 2.6465688192586283 -2.6986975645762117 2.6848826637633736 -2.660383720071467 C 2.7231965082681184 -2.622069875566721 2.744721001983296 -2.5701051509163255 2.744721001983296 -2.5159211923910614 Z M 2.1495422360415724 -3.3215499087210185 L 2.1495422360415724 -2.9055495458520273 C 2.1495509589131654 -2.8780812245791534 2.138645324777262 -2.851734949292256 2.119225371314001 -2.8323088288066236 C 2.0998054178507397 -2.812882708320992 2.073462606547479 -2.801968709510292 2.0459942838895975 -2.8019687108953186 L 1.6328218422289622 -2.8019687108953186 C 1.7204308062604603 -3.042637114295826 1.9093724601151292 -3.2326488844285315 2.1495422360415724 -3.3216156743305154 Z M 1.5109252850275277 -2.6882599720761764 C 1.525978453070024 -2.6044400731846933 1.5553556839376985 -2.523839007350853 1.5977687723674214 -2.4499911688709988 C 1.7833962522444313 -2.518407717048362 1.976127030503085 -2.5657383282489503 2.1723300197320476 -2.5910912840453584 C 2.1417055153527813 -2.4420348766093474 2.204021071622665 -2.289226247723017 2.330148263166104 -2.204093384388283 C 2.4562754547095427 -2.1189605210535487 2.621300588564315 -2.1183195752211668 2.748085264877775 -2.2024701469262777 C 2.874869941191234 -2.2866207186313883 2.9383705951354093 -2.4389406863441203 2.908904846090866 -2.5882304800322684 C 3.1043182692589424 -2.5617964968569003 3.296576581785321 -2.5157699537824554 3.4827755545557815 -2.4508461217944495 C 3.5228927463328064 -2.525108888561732 3.551057017609077 -2.605229471152227 3.5662321130066146 -2.688259972076176 C 3.6030974148137016 -2.5251422748565044 3.6007534040739024 -2.3556071903875524 3.559392489618997 -2.193571057444834 L 2.9737826198589894 -2.193571057444834 C 2.861493290341916 -2.193444207439403 2.770496439692293 -2.1024473567897797 2.770369589686862 -1.9901580272727073 L 2.770369589686862 -1.4090531017631962 C 2.688651834785689 -1.388301221516214 2.6046045619677693 -1.378144818660242 2.5202958595770926 -1.378833804199636 C 2.4378148373125876 -1.3782509753534642 2.3556050180962496 -1.3883420703984384 2.2757135578602687 -1.4088558049347069 L 2.2757135578602687 -1.9901580272727073 C 2.2755867078548393 -2.102447356789776 2.184589857205218 -2.193444207439401 2.072300527688145 -2.193571057444834 L 1.51714013512493 -2.193571057444834 C 1.4825393604435222 -2.3564521892396306 1.4804273846076486 -2.524560995985041 1.5109252850275277 -2.6882599720761764 Z M 3.385409569696475 -2.0737461169425333 C 3.296162652023962 -1.8406492690008074 3.111373773153252 -1.6569256971789041 2.8777648299943577 -1.5690279468630024 L 2.8777648299943577 -1.970198164790573 C 2.877764828700006 -1.9976664877902595 2.8886788275976656 -2.024009299057492 2.908104948147404 -2.0434292524566264 C 2.9275310686971423 -2.0628492058557604 2.9538773440200403 -2.0737548399046926 2.981345665292871 -2.073746116942425 Z M 2.14993682969855 -1.9700995163763286 L 2.14993682969855 -1.5673838066255938 C 1.9143803310517031 -1.6546342895433974 1.7278539908121202 -1.8391714628499347 1.6380830909886683 -2.0737789997472817 L 2.046257346327597 -2.0737789997472817 C 2.0737628810734106 -2.0738052079926184 2.100149393593022 -2.0628902815775745 2.119598752560933 -2.0434409226096646 C 2.139048111528843 -2.0239915636417543 2.149963037943887 -1.9976050511221422 2.1499368296985506 -1.9700995163763286 Z M 1.2997519129348343 -1.2596007541828023 C 1.0915051104647273 -1.481724100256634 0.9266964930669419 -1.8571141992616456 0.9332730540165741 -2.344831959286377 C 1.1640116949344235 -0.33026692639026134 3.8665836515763226 -0.3166863280292711 4.098243011027121 -2.344831959286377 C 4.119912779356159 -0.7044732444243391 2.1691075048667283 -0.1839713280656916 1.2997519129348343 -1.2596007541828023 Z M 4.92044466095015 -2.055529043112052 L 4.578463491569271 -1.7133834597074316 C 4.5010573691920985 -1.6359444545255113 4.384816654407347 -1.7221302857704424 4.359398246337019 -1.7885206685569806 C 4.353001477769043 -1.744507326891077 4.3633765911414555 -1.6996971652894142 4.388466645734393 -1.6629741200284998 C 4.347691967846673 -1.6999015097606858 4.3007353226662985 -1.7604387533020507 4.307246118006434 -1.8253822926796692 C 4.310089263356762 -1.8637617629416403 4.324359446449327 -1.9004107082837027 4.348218092722643 -1.9306072678737856 C 4.45271437548878 -2.0554558644632537 4.568057024712816 -2.1708095175652935 4.692895652092874 -2.2753177100487663 C 4.763330619863434 -2.3302977595876895 4.889929418143856 -2.353677433763633 4.969111211977429 -2.2438488659047735 C 4.935170291055852 -2.265631577287438 4.895003811250722 -2.2756385311169094 4.85481058267282 -2.2723253748166816 C 4.919425294002958 -2.2405934682347053 4.993839081148047 -2.128923463309949 4.92044466095015 -2.055529043112052 Z M 5.634297469227989 -2.055529043112052 L 5.292316299847109 -1.7133834597074316 C 5.214910177469937 -1.6359444545255113 5.098669462685185 -1.7221302857704424 5.073283937419605 -1.7885206685569806 C 5.066874339970969 -1.744511357059249 5.077237904880484 -1.6997003821730403 5.102319454012233 -1.6629741200284998 C 5.061577658929259 -1.6999015097606858 5.014588130944137 -1.7604387533020507 5.021098926284274 -1.8253822926796692 C 5.023957926471895 -1.863758171956622 5.038226363217352 -1.9004026322980843 5.0620709010004825 -1.930607267873786 C 5.166579139589562 -2.055455904507951 5.281932706541297 -2.1708094714596853 5.406781343175461 -2.2753177100487645 C 5.477183428141274 -2.3302977595876895 5.603782226421696 -2.353677433763633 5.682996903060017 -2.2438488659047735 C 5.649055982138439 -2.265631577287438 5.6088895023333105 -2.2756385311169094 5.568696273755408 -2.2723253748166816 C 5.6332452194760485 -2.2405934682347053 5.707856303449627 -2.128923463309949 5.634297469227989 -2.055529043112052 Z M 3.646334625373137 -3.929026843638555 C 3.814807100180051 -3.7807358120129724 3.9481406972756106 -3.596787119002283 4.036653517733814 -3.3905380330826613 C 3.909397063358429 -3.5971078125106124 3.5713289477425807 -3.9022931233782994 3.309285876704481 -4.011233855508959 L 6.702232319034031 -4.011233855508959 C 6.440189247995932 -3.9022931233782994 6.102121132380083 -3.5971078125106124 5.974864678004699 -3.3905380330826613 C 6.063377498462902 -3.596787119002283 6.196711095558461 -3.7807358120129724 6.365183570365375 -3.9290268436385545 Z M 5.949117441886888 -1.8853276457355683 C 5.897787383675007 -2.130732017571097 5.904396827429387 -2.1686458914457276 5.906797272176004 -2.344831959286377 C 5.918019565671558 -2.1932302226758518 5.948404069138918 -2.043661123243979 5.997224985233446 -1.8996974314105186 C 6.2517378939842185 -1.1214929742405242 7.116950252517844 -0.6526828269459859 7.9278731004122545 -0.8907543333226742 C 8.330292864920256 -1.020838708906402 8.574217510542118 -1.213795007168613 8.804495792193492 -1.5434780075736803 C 8.978774657358748 -1.8170958258831322 9.034675425430624 -2.021232277759719 9.071635697967556 -2.3448319592863767 C 9.084788819866823 -1.3618333941448362 8.39494045905514 -0.8953908087921651 7.964471662096957 -0.7692523697782185 C 7.080581870466377 -0.5000079645002709 6.148485887074991 -1.029914363016894 5.949117441886888 -1.8853276457355683 Z" fill="#67a97b" transform="matrix(1,0,0,1,0,0)" fill-rule="nonzero"></path></g><g clip-path="url(#SvgjsClipPath1000cf03078f-1ea1-44df-9869-6ae1fef5df83)"><path d=" M 8.317797399115955 -2.5274301740529177 C 8.416115412680789 -2.5257295265426167 8.512352334675782 -2.4988284763473105 8.597301239475327 -2.4493006299712867 C 8.556377189952444 -2.5687527438516584 8.444065310082443 -2.6489951874780258 8.317797399115955 -2.6489951874780258 C 8.191529488149467 -2.6489951874780258 8.079217608279464 -2.5687527438516584 8.038293558756582 -2.4493006299712867 C 8.123245922927566 -2.498820298455141 8.219480668185493 -2.525720740188415 8.317797399115955 -2.5274301740529177 Z" fill="#67a97b" transform="matrix(1,0,0,1,0,0)" fill-rule="nonzero"></path></g></g></g><defs><clipPath id="SvgjsClipPath1001"><path d=" M 0.670210616031282 -4.421972969618244 h 8.66461905114056 v 4.171972969618244 h -8.66461905114056 Z"></path></clipPath><clipPath id="SvgjsClipPath1000cf03078f-1ea1-44df-9869-6ae1fef5df83"><path d=" M 0.670210616031282 -4.421972969618244 L 9.334829667171842 -4.421972969618244 L 9.334829667171842 -0.25 L 0.670210616031282 -0.25 Z"></path></clipPath></defs></svg>